<?xml version="1.0" encoding="UTF-8" standalone="no"?>
<!DOCTYPE svg PUBLIC "-//W3C//DTD SVG 1.1//EN" "http://www.w3.org/Graphics/SVG/1.1/DTD/svg11.dtd">
<svg width="100%" height="100%" viewBox="0 0 500 500" version="1.1" xmlns="http://www.w3.org/2000/svg" xmlns:xlink="http://www.w3.org/1999/xlink" xml:space="preserve" xmlns:serif="http://www.serif.com/" style="fill-rule:evenodd;clip-rule:evenodd;stroke-linecap:round;stroke-linejoin:round;stroke-miterlimit:1.5;">
    <g id="Object">
        <g id="Case" transform="matrix(0.728986,0,0,0.728986,67.2353,126.846)">
            <g id="Case-Top" serif:id="Case Top" transform="matrix(2.47876,-1.23938,4.29017,2.14508,-524.969,-177.711)">
                <rect x="-71.554" y="171.73" width="71.554" height="57.243" style="fill:rgb(92,84,76);"/>
                <path d="M0,171.73L-71.554,171.73L-71.554,228.973L0,228.973L0,171.73ZM-70.935,172.088L-70.935,228.616L-0.619,228.616L-0.619,172.088L-70.935,172.088Z"/>
            </g>
            <g id="Case-Side" serif:id="Case Side" transform="matrix(3.43214,1.71607,5.76902e-17,1.43006,-456.751,-48.0979)">
                <rect x="143.108" y="57.243" width="71.554" height="57.243" style="fill:rgb(54,49,43);"/>
                <path d="M214.663,57.243L143.108,57.243L143.108,114.487L214.663,114.487L214.663,57.243ZM143.508,113.414L214.263,113.414L214.263,58.316L143.508,58.316L143.508,113.414Z"/>
            </g>
            <g id="Case-Front" serif:id="Case Front" transform="matrix(2.47876,-1.23938,-2.32451e-18,1.43006,-252.098,340.743)">
                <rect x="214.663" y="228.973" width="71.554" height="57.243" style="fill:rgb(71,64,57);"/>
                <path d="M286.217,228.973L214.663,228.973L214.663,286.217L286.217,286.217L286.217,228.973ZM215.216,230.046L215.216,285.144L285.663,285.144L285.663,230.046L215.216,230.046Z"/>
            </g>
        </g>
        <g id="Name" transform="matrix(1.24324,0,0,1.24324,-46.9189,161.405)">
            <path d="M256,136L216,156L224,160L264,140L256,136Z" style="fill:rgb(145,59,52);"/>
            <path d="M256,136L216,156L224,160L264,140L256,136ZM217.799,156L224,159.101L262.201,140L256,136.899L217.799,156Z"/>
            <path d="M224,120L184,140L192,144L208,136L224,144L248,132L224,120ZM224,128L216,132L224,136L232,132L224,128Z" style="fill:rgb(145,59,52);"/>
            <path d="M224,120L184,140L192,144L208,136L224,144L248,132L224,120ZM224,143.101L246.201,132L224,120.899L185.799,140L192,143.101L207.64,135.281C207.867,135.167 208.133,135.167 208.36,135.281L224,143.101ZM224.36,127.281C224.133,127.167 223.867,127.167 223.64,127.281L215.64,131.281C215.368,131.417 215.196,131.695 215.196,132C215.196,132.305 215.368,132.583 215.64,132.719L223.64,136.719C223.867,136.833 224.133,136.833 224.36,136.719L232.36,132.719C232.632,132.583 232.804,132.305 232.804,132C232.804,131.695 232.632,131.417 232.36,131.281L224.36,127.281ZM224,128L216,132L224,136L232,132L224,128Z"/>
        </g>
        <g id="Top-GPIO" serif:id="Top GPIO" transform="matrix(1.24324,0,0,1.24324,-46.9189,161.405)">
            <g transform="matrix(0.894427,-0.447214,1.11803,0.559017,0,0)">
                <rect x="0" y="193.196" width="26.833" height="78.71" style="fill:rgb(35,30,28);"/>
                <path d="M26.833,193.196L0,193.196L0,271.906L26.833,271.906L26.833,193.196ZM1.005,194.001L1.005,271.102L25.827,271.102L25.827,194.001L1.005,194.001Z"/>
            </g>
            <g id="Pins">
                <g transform="matrix(0.894427,-0.447214,1.11803,0.559017,0,0)">
                    <rect x="8.944" y="200.352" width="8.944" height="7.155" style="fill:rgb(92,84,76);"/>
                    <path d="M17.889,200.352L8.944,200.352L8.944,207.507L17.889,207.507L17.889,200.352ZM9.95,201.156L9.95,206.703L16.883,206.703L16.883,201.156L9.95,201.156Z"/>
                </g>
                <g transform="matrix(0.894427,-0.447214,1.11803,0.559017,0,0)">
                    <rect x="8.944" y="228.973" width="8.944" height="7.155" style="fill:rgb(92,84,76);"/>
                    <path d="M17.889,228.973L8.944,228.973L8.944,236.129L17.889,236.129L17.889,228.973ZM9.95,229.778L9.95,235.324L16.883,235.324L16.883,229.778L9.95,229.778Z"/>
                </g>
                <g transform="matrix(0.894427,-0.447214,1.11803,0.559017,0,0)">
                    <rect x="8.944" y="243.284" width="8.944" height="7.155" style="fill:rgb(92,84,76);"/>
                    <path d="M17.889,243.284L8.944,243.284L8.944,250.44L17.889,250.44L17.889,243.284ZM9.95,244.089L9.95,249.635L16.883,249.635L16.883,244.089L9.95,244.089Z"/>
                </g>
                <g transform="matrix(0.894427,-0.447214,1.11803,0.559017,0,0)">
                    <rect x="8.944" y="257.595" width="8.944" height="7.155" style="fill:rgb(92,84,76);"/>
                    <path d="M17.889,257.595L8.944,257.595L8.944,264.75L17.889,264.75L17.889,257.595ZM9.95,258.399L9.95,263.946L16.883,263.946L16.883,258.399L9.95,258.399Z"/>
                </g>
                <g transform="matrix(0.894427,-0.447214,1.5476,0.773799,-95.285,-47.6425)">
                    <rect x="8.944" y="216.649" width="8.944" height="5.169" style="fill:rgb(92,84,76);"/>
                    <path d="M17.889,216.649L8.944,216.649L8.944,221.818L17.889,221.818L17.889,216.649ZM9.95,217.23L9.95,221.237L16.883,221.237L16.883,217.23L9.95,217.23Z"/>
                </g>
            </g>
        </g>
        <g id="Front-Ports" serif:id="Front Ports" transform="matrix(1.24324,0,0,1.24324,-46.9189,161.405)">
            <g>
                <path d="M264,212L264,220L288,208L288,200L264,212Z" style="fill:rgb(54,49,43);stroke:black;stroke-width:0.8px;"/>
                <path d="M288,208L280,204" style="fill:none;stroke:black;stroke-width:0.8px;"/>
            </g>
            <g>
                <g transform="matrix(1,0,0,1,9.72555e-14,16)">
                    <path d="M264,212L264,220L288,208L288,200L264,212Z" style="fill:rgb(54,49,43);stroke:black;stroke-width:0.8px;"/>
                </g>
                <path d="M288,224L280,220" style="fill:none;stroke:black;stroke-width:0.8px;"/>
            </g>
            <g>
                <g transform="matrix(1,0,0,1,32,-16)">
                    <path d="M264,212L264,220L288,208L288,200L264,212Z" style="fill:rgb(54,49,43);stroke:black;stroke-width:0.8px;"/>
                </g>
                <path d="M320,192L312,188" style="fill:none;stroke:black;stroke-width:0.8px;"/>
            </g>
            <g>
                <g transform="matrix(1,0,0,1,32,-5.68656e-13)">
                    <path d="M264,212L264,220L288,208L288,200L264,212Z" style="fill:rgb(54,49,43);stroke:black;stroke-width:0.8px;"/>
                </g>
                <path d="M320,208L312,204" style="fill:none;stroke:black;stroke-width:0.8px;"/>
            </g>
            <g>
                <g transform="matrix(1.34164,-0.67082,-8.32667e-17,1.67705,-176,-96)">
                    <rect x="375.659" y="314.838" width="17.889" height="14.311" style="fill:rgb(54,49,43);stroke:black;stroke-width:0.68px;"/>
                </g>
                <path d="M352,192L328,180" style="fill:none;stroke:black;stroke-width:0.8px;"/>
            </g>
        </g>
        <g id="Side-Ports" serif:id="Side Ports" transform="matrix(1.24324,0,0,1.24324,-46.9189,161.405)">
            <g>
                <g transform="matrix(0.894427,0.447214,5.55112e-17,1.11803,-7.10543e-13,16)">
                    <rect x="143.108" y="85.865" width="35.777" height="7.155" style="fill:rgb(71,64,57);stroke:black;stroke-width:0.63px;"/>
                </g>
                <path d="M128,184L136,180" style="fill:rgb(71,64,57);stroke:black;stroke-width:0.8px;"/>
            </g>
            <g>
                <g transform="matrix(0.894427,0.447214,5.55112e-17,1.11803,-6.32827e-15,16)">
                    <rect x="205.718" y="85.865" width="8.944" height="7.155" style="fill:rgb(71,64,57);stroke:black;stroke-width:0.63px;"/>
                </g>
                <path d="M184,212L192,208" style="fill:none;stroke:black;stroke-width:0.8px;"/>
            </g>
        </g>
    </g>
    <g id="Light">
        <g id="Top">
            <g id="Top-GPIO1" serif:id="Top GPIO" transform="matrix(1.24324,0,0,1.24324,-46.9189,161.405)">
                <g id="GPIO-Pins" serif:id="GPIO Pins">
                    <g transform="matrix(0.894427,-0.447214,1.11803,0.559017,0,0)">
                        <rect x="8.944" y="200.352" width="8.944" height="7.155" style="fill:rgb(38,185,217);"/>
                    </g>
                    <g transform="matrix(0.894427,-0.447214,1.11803,0.559017,0,0)">
                        <rect x="8.944" y="228.973" width="8.944" height="7.155" style="fill:rgb(38,185,217);"/>
                    </g>
                    <g transform="matrix(0.894427,-0.447214,1.11803,0.559017,0,0)">
                        <rect x="8.944" y="243.284" width="8.944" height="7.155" style="fill:rgb(38,185,217);"/>
                    </g>
                    <g transform="matrix(0.894427,-0.447214,1.11803,0.559017,0,0)">
                        <rect x="8.944" y="257.595" width="8.944" height="7.155" style="fill:rgb(38,185,217);"/>
                    </g>
                    <g transform="matrix(0.894427,-0.447214,1.5476,0.773799,-95.285,-47.6425)">
                        <rect x="8.944" y="216.649" width="8.944" height="5.169" style="fill:rgb(38,185,217);"/>
                    </g>
                </g>
            </g>
            <g id="Name1" serif:id="Name" transform="matrix(1.24324,0,0,1.24324,-46.9189,161.405)">
                <path d="M256,136L216,156L224,160L264,140L256,136Z" style="fill:rgb(195,51,204);"/>
                <path d="M224,120L184,140L192,144L208,136L224,144L248,132L224,120ZM224,128L216,132L224,136L232,132L224,128Z" style="fill:rgb(195,51,204);"/>
            </g>
        </g>
        <g transform="matrix(1.24324,0,0,1.24324,-46.9189,161.405)">
            <g id="Side">
                <g id="Ports">
                    <g transform="matrix(0.894427,0.447214,5.55112e-17,1.11803,-7.24754e-13,16)">
                        <rect x="143.108" y="85.865" width="35.777" height="7.155" style="fill:rgb(38,185,217);"/>
                    </g>
                    <g transform="matrix(0.894427,0.447214,5.55112e-17,1.11803,0,16)">
                        <rect x="205.718" y="85.865" width="8.944" height="7.155" style="fill:rgb(38,185,217);"/>
                    </g>
                </g>
            </g>
        </g>
        <g transform="matrix(1.24324,0,0,1.24324,-46.9189,161.405)">
            <g id="Front">
                <g id="Ports1" serif:id="Ports">
                    <g>
                        <path d="M264,212L264,220L288,208L288,200L264,212Z" style="fill:rgb(77,200,216);"/>
                    </g>
                    <g transform="matrix(1,0,0,1,9.72555e-14,16)">
                        <path d="M264,212L264,220L288,208L288,200L264,212Z" style="fill:rgb(77,200,216);"/>
                    </g>
                    <g transform="matrix(1,0,0,1,32,-16)">
                        <path d="M264,212L264,220L288,208L288,200L264,212Z" style="fill:rgb(77,200,216);"/>
                    </g>
                    <g transform="matrix(1,0,0,1,32,-5.68656e-13)">
                        <path d="M264,212L264,220L288,208L288,200L264,212Z" style="fill:rgb(77,200,216);"/>
                    </g>
                    <g transform="matrix(1.34164,-0.67082,-8.32667e-17,1.67705,-176,-96)">
                        <rect x="375.659" y="314.838" width="17.889" height="14.311" style="fill:rgb(77,200,216);"/>
                    </g>
                </g>
            </g>
        </g>
    </g>
</svg>
